# xmcd
#
# Track frame offsets:
#	150
#	7467
#	10830
#	13720
#	17555
#	20220
#	24132
#	27412
#	30892
#	32725
#	40035
#	44332
#	46127
#	63242
#	71310
#	73687
#	77400
#	106057
#	120237
#
# Disc length: 1879 seconds
#
# Revision: 1
# Processed by: cddbd v1.5.2PL0 Copyright (c) Steve Scherf et al.
# Submitted via: audiograbber 1.83.01
#
DISCID=d9075513
DTITLE=Tom Ball - Blues Harmonica Crash Course
DYEAR=2002
DGENRE=Blues
TTITLE0=Introduction
TTITLE1=Play often, Play well, Tuning
TTITLE2=Single notes
TTITLE3=C Scale, Straight harp
TTITLE4=Taps
TTITLE5=Oh Susanna
TTITLE6=Silent Night
TTITLE7=Swanee River
TTITLE8=When the Saints go Marching in
TTITLE9=Bending
TTITLE10=Bending Holes 2,3,4,5,6,7
TTITLE11=Bending blow holes
TTITLE12=The 12 bar blues
TTITLE13=Licks
TTITLE14=Breathing and phrasing
TTITLE15=Overblowing
TTITLE16=Riffs and Tricks
TTITLE17=Indiscretion Stomp
TTITLE18=Your mind is in the gutter
EXTD=
EXTT0=
EXTT1=
EXTT2=
EXTT3=
EXTT4=
EXTT5=
EXTT6=
EXTT7=
EXTT8=
EXTT9=
EXTT10=
EXTT11=
EXTT12=
EXTT13=
EXTT14=
EXTT15=
EXTT16=
EXTT17=
EXTT18=
PLAYORDER=
